<?xml version="1.0" encoding="utf-8"?>
<!-- Generator: Adobe Illustrator 22.1.0, SVG Export Plug-In . SVG Version: 6.00 Build 0)  -->
<svg version="1.1" id="Layer_1" xmlns="http://www.w3.org/2000/svg" xmlns:xlink="http://www.w3.org/1999/xlink" x="0px" y="0px"
	 viewBox="0 0 63 72" style="enable-background:new 0 0 63 72;" xml:space="preserve">
<style type="text/css">
	.st0{clip-path:url(#SVGID_2_);fill:#D1D3D4;}
	.st1{clip-path:url(#SVGID_4_);fill:#D1D3D4;}
	.st2{clip-path:url(#SVGID_6_);fill:#D1D3D4;}
	.st3{clip-path:url(#SVGID_8_);fill:#D1D3D4;}
	.st4{clip-path:url(#SVGID_10_);fill:#D1D3D4;}
	.st5{clip-path:url(#SVGID_12_);fill:#58595B;}
	.st6{clip-path:url(#SVGID_14_);fill:#D1D3D4;}
	.st7{clip-path:url(#SVGID_16_);fill:#D1D3D4;}
	.st8{clip-path:url(#SVGID_18_);fill:none;stroke:#251F21;stroke-width:0.5;stroke-linecap:round;stroke-linejoin:round;}
</style>
<g>
	<g>
		<defs>
			<rect id="SVGID_1_" x="0.2" y="0.5" width="62.5" height="71"/>
		</defs>
		<clipPath id="SVGID_2_">
			<use xlink:href="#SVGID_1_"  style="overflow:visible;"/>
		</clipPath>
		<path class="st0" d="M45.1,62.8l-1.9,0l0,1.1l-2.1,0.1l0-1L33.8,63l0-2.1l-1.1,0l-0.1-1.3l-0.5,0l0-0.7l-4.6,0c0,0.1,0,0.2,0,0.2
			c0,0.1,0,0.3-0.1,0.5c0,0.2-0.1,0.3-0.3,0.3L19.7,60c-0.1-0.2-0.2-0.2-0.3-0.3c-0.1-0.1-0.3-0.1-0.4-0.2l0,2.6l-2.1,0l0,1.1
			l-0.4,0l0,0.5l-0.2,0l0,0.4l0.7,0l0,3.2L5.2,67.1l0,0.5l0,0.2l0,0.3l0,0.9l0,0.2l0,0.8l0,0l0,0.2v0l0,0l0,0.1l0,1l0.1,0l0.8,0
			l0.2,0l0,0l0.3,0l0.2,0h0.2l0.3,0l0,0l0.1,0h0.2l0.7,0l0.4,0l0.3,0h0.2l0.1,0l0,0l0.4,0l0.6,0l0.2,0l0.1,0l0.1,0h0.6h0l0.4,0
			l0.1,0l0.3,0l0.1,0l0.2,0l0.4,0l0.5,0l0.1,0l0.2,0l0.1,0l0.2,0l0.2,0v0l0.4,0l0.1,0l0.3,0l0.1,0l0.5,0l0.2,0l0,0l0.3,0l0.3,0h0
			l0.1,0l0.1,0l0,0l0.3,0l0.1,0l0.2,0l0.4,0l0.2,0l0.2,0l0.2,0l0.2,0l0.2,0l0.2,0l0.2,0l0.2,0l0.1,0l0,0l0.1,0l0,0h0l0.1,0l0,0
			l0.4,0l0.6,0l0.3,0l0.1,0l0.5,0l0,0h0.4l0.1,0l0.6,0l0.2,0h0.2l0,0h0.5l0.1,0l0.1,0l0.4,0h0.7l0.4,0l0.5,0l0.2,0l0.1,0l0,0h0
			l0.1,0l0,0h0l0,0l0.1,0l0.1,0l0.5,0l0.3,0l0.7,0l0.3,0l0.5,0h0l0.2,0l0.3,0l0.2,0l0.1,0l0,0l0,0l0.4,0l0.3,0l0.3,0l0.2,0l0.2,0
			l0,0l0.3,0l0,0l0.1,0l0.1,0l0,0l0.1,0l0,0l0.3,0l0.2,0l0.1,0l0,0l0.2,0h0.2l0.5,0l0.1,0l0.2,0l0.1,0l0.3,0l0,0l0.2,0l0.3,0l0.2,0
			l0.1,0l0.3,0l0.5,0h0.2l0.1,0l0.3,0l0.3,0l0.2,0l0.1,0l0.1,0l0,0l0.1,0l0.2,0l0.3,0l0.2,0h0l0.2,0l0.3,0l0.4,0l0.1,0h0l0.1,0
			l0.2,0l0,0l0.7,0l0.1,0l0.1,0l0.7,0l0.1,0l0.1,0l0.2,0h0l0.2,0l0.1,0l0.1,0l0.1,0l0.2,0l0.1,0l0.1,0l0.3,0l0,0l0.6,0l0.1,0l0.2,0
			l0.7,0l0.1,0l0.1,0l0.6,0l0.3,0l0.1,0l0,0l0.1,0l0.1,0l0.6,0l0.2,0l0.2,0l0.1,0l0,0l0.1,0l0.1,0h0l0.1,0l0.2,0l0,0l0,0l0,0h0
			l0.3,0l0.3,0l0.1,0l0.1,0l0.1,0l0,0l0,0l0.1,0l0,0l0,0l0,0h0l0,0l0.2,0l0.3,0l0.1,0l0.1,0l0.4,0l0.2,0h0l0.1,0l0,0l0.4,0l0.2,0
			l0,0h0l0,0l0.7,0l0.1,0l0.2,0l0.1,0l0.1,0l0.3,0l0-0.1l0-0.1l0,0l0,0l0,0l-0.1,0l0,0l0-0.1l-0.1-0.1l0-0.1l0,0v0v0l0,0l0,0
			l0.1-0.1v0l0-0.1v0l0,0v0l0-0.1l0,0l0,0l0,0l0,0h0l0,0l-0.1-0.1l0,0l0,0l0,0l0,0l0,0l0-0.1l0-0.1l0-0.1l0,0l0,0l0,0l0,0l0,0
			l-0.1,0l0,0l0-0.1l0,0v0l0-0.1l0-0.2l0,0l0-0.2l0-0.1l0-0.1l0-0.1l0,0l0-0.1l0,0v0l0-0.1l0.1-0.3l0-0.1l0,0l-0.1-0.1l-0.1-0.1l0,0
			l0,0l0-0.1l0-0.1l0-0.1l0-0.1l0-0.1l0-0.1l0,0l0-0.1l0-0.1l0-0.1l-0.1-0.1l0,0l-0.1,0l0,0l0,0l0,0l-0.1-0.1l0-0.1l0,0l0,0l0-0.1v0
			l-0.1-0.1l-0.1,0l0,0l0,0h0l0,0v0l0-0.1l0,0l0,0l0,0l0,0l0-0.1l0-0.1l0,0v0l0,0l0,0l-0.1-0.1l-0.1-0.1l0,0l-0.1,0l-0.1,0l0,0
			l0-0.1l0,0l-0.1-0.1l0,0l0,0l0,0l0-0.1l0,0l0,0l0,0l0,0h0l-0.1,0l0,0l-0.1,0l-0.1,0l0,0l-0.1,0l0,0h0l-0.1,0l-0.1,0l-0.1,0l-0.1,0
			l-0.1,0l-0.1,0l-0.1,0l-0.1,0h0l-0.1,0l0,0l0,0l0,0l0,0l0,0h0l0,0l0,0l0,0l0,0l0,0v0l0,0v0l0,0l0,0l0,0l-0.1,0l0,0l0,0l0,0l0,0
			l0,0l0,0v0l0,0l0,0l0,0h0l0,0l0,0l0,0l0,0l0,0l0,0h0l0,0l0-0.1l0-0.1l0,0l0,0l0,0l0,0l0,0l0,0h0l0,0l0,0l0,0l-0.1-0.1l0,0l0-0.1
			l0-0.1l0,0l-0.1-0.1l0,0l0,0l0,0l-0.1,0l0,0l-0.1,0l0,0l0,0l0,0l0,0l-0.1,0l-0.1,0l-0.1,0l-0.2-0.1l-0.1-0.1l-0.1-0.1l-0.1-0.2
			l0,0l-0.1,0l0,0l0,0L45.1,62.8L45.1,62.8L45.1,62.8z"/>
	</g>
	<g>
		<defs>
			<rect id="SVGID_3_" x="0.2" y="0.5" width="62.5" height="71"/>
		</defs>
		<clipPath id="SVGID_4_">
			<use xlink:href="#SVGID_3_"  style="overflow:visible;"/>
		</clipPath>
		<path class="st1" d="M37,55l-1.9,0l0,0.2l-0.2,0l-0.1-0.4l-0.3-0.4l-0.6,0c-0.1,0.2-0.2,0.2-0.3,0.3c-0.1,0-0.1,0.1-0.2,0.1
			c0,0-0.1,0-0.1,0.1c0,0.1-0.1,0.2-0.1,0.2c0,0.1,0,0.1-0.1,0.2c-0.1,0.1-0.1,0.2-0.3,0.2c-0.1,0-0.2,0.2-0.4,0.3
			c-0.1,0.1-0.2,0.2-0.4,0.2c-0.2,0-0.3,0-0.5-0.1s-0.3-0.1-0.5-0.1c-0.3,0-0.7,0-1,0c-0.1,0.1-0.2,0.2-0.3,0.4
			c-0.1,0.1-0.2,0.1-0.2,0.2c0,0.1,0,0.4,0,0.5c0,0.1,0,0.2-0.1,0.2c-0.1,0-0.2,0-0.3,0c-0.2,0.3-0.5,0.5-0.8,0.7c0,0,0,0,0,0
			c-0.3,0.2-0.6,0.2-0.9,0.4c-0.2,0.1-0.2,0.3-0.2,0.5c0,0.1,0,0.2,0,0.3l4.6,0l0,0.7l0.5,0l0.1,1.3l1.1,0l0,2.1l7.3-0.1l0,1
			l2.1-0.1l0-1.1l1.9,0l0,0l-0.1,0l-0.1,0l0,0v0l0,0l0,0l0,0l0,0l0,0l0,0l-0.1-0.1l0-0.1l0-0.1l0-0.1v0l0-0.1l0,0l0,0l0,0l0,0l0,0v0
			l0,0l0-0.1l0,0l0,0l0,0l0,0l0,0l0,0l0,0h0l-0.1,0l0,0l0,0h0v0v0l0,0v0v0l0-0.1l0-0.1l0,0l0,0l0-0.1l0-0.1l0,0l0-0.1l0,0l-0.1,0
			l-0.1,0l-0.1-0.1l0-0.1l-0.1-0.1l0,0h0l0,0h0l0,0l0,0l0,0l0,0l0,0h0h0l0,0h0l0,0l-0.1,0l-0.1,0l0,0l0,0l0,0l-0.1,0l0,0l0,0
			l-0.1-0.1l-0.1-0.1h0v0l0,0l0,0l0,0l0,0l0,0l-0.1,0l-0.1,0l-0.1,0l0,0l-0.1,0h0l0,0l-0.1,0l0,0l0,0l0-0.1l0,0l-0.1,0l-0.2,0l0,0
			l-0.1,0L42.1,60L42,60l-0.2-0.1l0,0l0,0l-0.1-0.1l0,0l0,0l0,0l0,0l0,0l-0.1-0.1l-0.1-0.1l0-0.1l-0.1-0.1l0,0l0,0l0,0v0l0,0v0l0,0
			l0-0.1v0l0,0l0,0l0-0.1l0,0v0l0-0.1l0-0.1l0-0.1v0l0,0l0,0h0l0,0l0,0l0,0v0l-0.1-0.1l-0.1,0l-0.1,0l-0.1,0h0l-0.1,0l-0.1,0l-0.1,0
			h0l-0.1,0l0,0l0,0l0,0l-0.1,0l0,0l0,0l0,0l-0.1,0h0l-0.1,0l-0.1,0l-0.1,0l-0.1,0l0,0l-0.1,0l0,0l0,0l0,0l0,0h0h0l0,0h0l0,0l0,0
			l-0.1,0h0l0,0l0,0l0,0l-0.1,0l-0.1,0.1l0,0l0,0h0v0l0,0h0l0,0h0h0l0,0h0l0,0l0,0v0l0,0v0l0,0l-0.1-0.2l0-0.1l0,0v0l0,0v0h0l0,0
			l0,0l0,0l0,0l0,0l0,0l0,0l0,0l0,0l0-0.1l-0.1-0.1l-0.1,0l-0.1,0l0,0h0l0,0l0,0l0,0l0,0l0,0v0l0,0l0-0.1l0-0.1l0-0.1l-0.1-0.1
			L38,57.4l-0.1,0l0,0l-0.1,0l0,0l-0.1-0.2L37.7,57l0,0l0,0l0,0l-0.1-0.1l-0.2-0.2l0,0l-0.1-0.1l0,0l0,0l-0.1-0.1l-0.1,0l0,0l-0.1,0
			l0,0l-0.1-0.1l0,0l0,0l0,0l0,0l0,0l0-0.1l0-0.1l0-0.1l0-0.1l0-0.1l0.1-0.1l0-0.1l0-0.1l0-0.1l0,0v0l0,0l0,0l0-0.1l0,0l0,0l0,0v0
			l0,0l0,0l0,0l0,0v0l0,0l0,0L37,55L37,55L37,55L37,55z"/>
	</g>
	<g>
		<defs>
			<rect id="SVGID_5_" x="0.2" y="0.5" width="62.5" height="71"/>
		</defs>
		<clipPath id="SVGID_6_">
			<use xlink:href="#SVGID_5_"  style="overflow:visible;"/>
		</clipPath>
		<path class="st2" d="M29.9,56.1c0.1-0.1,0.2-0.3,0.3-0.4c0.3,0,0.7,0,1,0c0.2,0,0.4,0,0.5,0.1c0.2,0.1,0.3,0.1,0.5,0.1
			c0.2,0,0.3-0.1,0.4-0.2c0.1-0.1,0.2-0.2,0.3-0.3c0.2,0,0.2-0.1,0.3-0.2c0,0,0-0.1,0.1-0.2l-1.1,0l0-0.3l-0.2,0L32,54.3l-0.4,0
			l0,0.2l-0.2,0l-0.1-0.3l0.3-0.2l0-1.5l0.4,0l0-0.3l0.6,0l0-0.2l-0.1-0.3h0.2l0-1l-0.8,0c-0.1,0.1,0,0.2,0,0.4
			c-0.1,0-0.2-0.2-0.3-0.1c-0.1,0-0.1-0.1-0.2-0.2c0-0.1,0-0.2-0.1-0.2c-0.1,0-0.4,0.1-0.4-0.1c0-0.1-0.2-0.2-0.4-0.2
			c-0.1,0.2-0.3,0.3-0.5,0.3c-0.2,0.1-0.4,0-0.5,0.1c-0.1,0.1-0.1,0.1-0.1,0.2c0,0.1,0.1,0.1,0.1,0.2c0.1,0.1,0.1,0.3,0.1,0.4
			c-0.2,0-0.3-0.2-0.4-0.1c-0.2,0-0.3,0.1-0.3,0.2c0,0.2,0,0.3-0.2,0.5c0,0.2-0.3,0.2-0.3,0.4l0.1,3.1l0.8,0l0,0.2l0.3,0l0,0.2
			L29.9,56.1z"/>
	</g>
	<g>
		<defs>
			<rect id="SVGID_7_" x="0.2" y="0.5" width="62.5" height="71"/>
		</defs>
		<clipPath id="SVGID_8_">
			<use xlink:href="#SVGID_7_"  style="overflow:visible;"/>
		</clipPath>
		<path class="st3" d="M37.1,51.8l-4.1,0l0,0.9l0.2,0.3l0.1,1.5l0.1,0.2l0.2,0.1c0,0,0.1-0.1,0.2-0.1c0.1,0,0.2-0.1,0.3-0.3l0.6,0
			l0.3,0.4l0.1,0.4l0.2,0l0-0.2l1.9,0v0l0-0.1l0-0.1v0l0,0l0-0.1l0-0.1l0,0l0-0.1v0l0,0v0l0.1,0l0,0h0l0,0v0l0,0l0-0.1l0-0.2l0-0.1
			l0,0v0v0l0-0.1l0,0l0-0.1l0-0.1l0,0l-0.1,0l0,0l0,0l0,0l0,0l0-0.1l0,0l0,0l0-0.1l0-0.1l0,0l0-0.1l0,0l0,0v0l0-0.1l0,0l0,0l0,0l0,0
			l0,0v0l0-0.1l-0.1-0.1l0,0l0,0l0,0l0,0l-0.1,0l0,0l0,0l0,0l0-0.1v0l0,0l0-0.1v0l0,0l0,0l0.1-0.1l0,0l0,0l0,0l0,0l0.1-0.1l0.1-0.1
			l0.1-0.1l0.1,0l0,0l0-0.1l0,0L37.1,51.8L37.1,51.8L37.1,51.8L37.1,51.8L37.1,51.8L37.1,51.8z"/>
	</g>
	<g>
		<defs>
			<rect id="SVGID_9_" x="0.2" y="0.5" width="62.5" height="71"/>
		</defs>
		<clipPath id="SVGID_10_">
			<use xlink:href="#SVGID_9_"  style="overflow:visible;"/>
		</clipPath>
		<path class="st4" d="M32.7,51.8l-0.2,0l0.1,0.3l0,0.2l-0.6,0l0,0.3l-0.4,0l0,1.5l-0.3,0.2l0.1,0.3l0.2,0l0-0.2l0.4,0l0.1,0.4
			l0.2,0l0,0.3l1.1,0c0-0.1,0.1-0.2,0.1-0.2c0-0.1,0.1-0.1,0.1-0.1l-0.2-0.1l-0.1-0.2l-0.1-1.5L33,52.7l0-0.9L32.7,51.8z"/>
	</g>
	<g>
		<defs>
			<rect id="SVGID_11_" x="0.2" y="0.5" width="62.5" height="71"/>
		</defs>
		<clipPath id="SVGID_12_">
			<use xlink:href="#SVGID_11_"  style="overflow:visible;"/>
		</clipPath>
		<path class="st5" d="M37,49.8l-2.3,0l0-1.4l-4.1,0l0-1.8l-2.1,0l-0.1-3.2l-4.9,0c0.2,0.3,0.4,0.5,0.7,0.6l-2.1,0l0,3.9l-0.5,0.1
			l0,0.4l-0.6,0l0,1l2.2,0l0,0.5l1,0l0.1,3.6l2.1,0l0,3.1l1.1,0l0,0.5l1.1,0l0,0.4c0.4-0.2,0.6-0.3,0.8-0.7c0.1,0.1,0.2,0.1,0.3,0
			c0.1,0,0.1-0.1,0.1-0.2c0-0.2,0-0.4,0-0.5c0-0.1,0.1-0.1,0.2-0.2l-0.4,0l0-0.2l-0.3,0l0-0.2l-0.8,0l-0.1-3.1
			c0-0.2,0.3-0.2,0.3-0.4c0.1-0.1,0.1-0.3,0.2-0.5c0-0.2,0.1-0.3,0.3-0.2c0.2,0,0.3,0.1,0.4,0.1c0-0.1,0-0.3-0.1-0.4
			c-0.1,0-0.1-0.1-0.1-0.2c0-0.1,0-0.1,0.1-0.2c0.2-0.1,0.3,0,0.5-0.1c0.2-0.1,0.4-0.2,0.5-0.3c0.1-0.1,0.3,0,0.3,0.2
			c0.1,0.2,0.3,0.1,0.4,0.1c0.1,0,0.1,0.1,0.1,0.2c0,0.1,0,0.2,0.2,0.2c0.1,0,0.2,0.1,0.3,0.1c0-0.1,0-0.3,0-0.4l0.8,0l0,1l0.4,0
			l4.1,0l0-0.2L37,51.5l0,0l0-0.1l0-0.1l0-0.1l0,0l0,0l0,0l-0.1-0.1l0,0l0-0.1l0-0.1v0l0-0.1l0,0l0,0l0,0l0-0.1v0l0,0l0,0l0,0l0-0.1
			l0-0.1l0-0.1l0,0l0,0l0-0.1l0-0.1v0l0,0l0-0.1l0,0l0-0.1l0,0L37,49.8L37,49.8L37,49.8L37,49.8z"/>
	</g>
	<g>
		<defs>
			<rect id="SVGID_13_" x="0.2" y="0.5" width="62.5" height="71"/>
		</defs>
		<clipPath id="SVGID_14_">
			<use xlink:href="#SVGID_13_"  style="overflow:visible;"/>
		</clipPath>
		<path class="st6" d="M16.9,0.5L16.9,0.5l0,0.2l0,0l0,0l0,0.1l0,0.1l0,0l0,0.4v0l0,0l0,0.7l0,0.7l0,0.1l0,0.1l0,0l0,2.2l-1.3,0
			l-0.1,0l-0.1,0l-0.1,0l-0.9,0l-2.2,0l-0.9,0l-0.1,0l-0.6,0l-0.3,0L9,5.1L6.9,5l-1,0L4.8,5l-1,0l0,0l-1,0l-1,0l-1.3,0l0,0l0,0l0,0
			l0,0l0,0l0,0l0,0l0,0l0,0l0,0.1l0,0l0,0l0,0.1l0,0l0,0h0l0,0l0,0l0,0l0,0l0,0l0,0l0,0l0,0.1l0,0l0,0l0,0l0,0l0,0v0l0,0l0,0l0,0.1
			l0,0l0,0h0l0,0l0,0l0,0l0,0l0,0l0,0l0,0l0,0l0,0l0,0l0,0l0,0l0,0l0,0l0.1,0l0,0l0,0l0,0l0,0v0l0,0l0,0l0,0v0l0,0l0,0l0,0l0,0l0,0
			l0,0l0,0l0,0l0,0l0,0l0,0l0,0l0,0l0,0.1l0,0l0,0l0,0l0,0v0l0,0l0,0l0,0l0,0l0,0l0,0l0,0l0,0l0,0l0,0l0,0l0,0l0,0l0,0l0,0l0,0l0,0
			l0,0l0,0l0,0l0,0l0,0l0,0l0,0l0,0v0l0,0l0,0l0,0l0,0l0,0l0,0l0,0l0,0l0,0l0,0l0,0l0,0l0,0l0,0l0,0l0,0l0,0l0,0l0,0.1l0,0l0,0
			l0,0.1l0,0l0,0l0.1,0l0,0l0,0L1,8l0,0l0,0l0,0l0,0l0,0.1l0,0l0,0l0,0l0,0l0.1,0l0,0l0,0l0,0.1l0,0.1l0,0l0,0l0,0l0,0l0.1,0.1l0,0
			l0.1,0l0,0l0,0v0l0,0l0,0l0,0l0,0.1l0,0l0,0l0,0l0,0v0l0,0l0,0l0,0l0,0l0,0.1l0,0l0,0l0,0.1l0,0l0,0l0,0l0,0l0,0l0,0l-0.1,0l0,0
			l0,0v0l0,0l0,0l0,0l0,0l0,0l0,0h0l0,0l0,0l0,0l0,0v0l0,0h0l0,0l0,0l0,0l0,0l0,0l0,0l0,0l0,0l0,0l0,0.1l0,0l0,0l0,0l0,0l0,0l0,0
			l0,0l0,0l0,0l0,0l0,0l0,0l0,0l0,0.1l0,0l0,0l0,0l0,0l0,0v0l0,0l0,0l0,0l0,0l0,0l0,0l0,0h0l0,0l0,0l0,0l0,0v0l0,0l0,0.1l0,0l0,0.1
			l0,0.1l0,0l0,0l0.1,0l0,0l0,0l0,0l0,0.1l0,0l0,0l0,0l0,0l0,0l0,0l0,0l0,0l0,0l0,0.1l0,0l0,0l0,0l0,0l0,0l0,0l0,0.1l0,0l0,0v0l0,0
			l0,0l0,0l0,0l0,0l0,0l0,0l0,0l0,0l0,0l0,0l0,0h0l0,0l0,0v0l0,0l0,0l0,0l0,0l0,0.1l0,0l0,0.1l0,0l0,0l0,0l0,0.1l0,0l0,0l0,0l0,0
			l0,0l0,0l0,0l0,0l0,0l0,0l0,0l0,0.1l0,0l0,0.1l0,0l0,0l0,0l0,0l0,0l0,0l0,0l0,0l0,0l0,0.1l0,0.1l0,0l0,0l0,0l0,0l0,0l0,0l0,0l0,0
			l0,0l0,0l0,0l0,0l0,0l0,0l0,0l0,0l0,0l0,0l0,0l0,0l0,0l0,0l0,0l0,0l0,0l0,0l0,0l0,0l0,0l0,0l0,0.1l0,0l0,0l0,0v0l-0.1,0.1l0,0l0,0
			l0,0l0,0l0,0l0,0l0,0l0,0l0,0l0,0l0,0l0,0l0,0l0,0l0,0l0,0l0,0l0,0l0,0l0,0l0,0l0,0l0,0l0,0l0,0l0,0l0,0l0,0l0,0l0,0v0l0,0l0,0
			l0,0l0,0l0,0v0l0,0l0,0l0,0l0,0l0,0l0,0l0,0l0,0l0,0l0,0l0,0l0,0l0,0v0l0,0l0,0.1l0,0v0l0,0l0,0l0,0l0,0l0,0l0,0l0,0l0,0l0,0.1
			l0,0l0,0l0,0l0,0l0,0l0,0l0,0l0,0l0,0l0,0l0,0l0,0l0,0l0,0l0,0l0,0.1l0,0l0,0.1l0,0l0,0l0,0l0,0l0,0l0,0l0,0l0,0l0,0l0.1,0l0,0
			l0,0l0,0.1l0,0l0,0l0,0l0,0l0,0l0,0v0l0,0l0,0l0,0l0,0.1l0,0l0,0l0,0l0,0l0.1,0.1l0,0.1l0,0l0,0l0,0l0,0l0,0l0,0l0,0l0,0l0,0l0,0
			l0,0.1l0,0.2v0l0,0.1l0,0l0,0l0,0l0,0l0,0l0,0l0,0l0,0l0,0l0,0l0,0l0,0.1l0,0l0.1,0l0,0v0l0,0l0,0.1l0,0.1l0,0l0,0l0,0l0,0l0,0v0
			l0,0l0,0l0,0l0,0l0,0.1l0,0l0,0l0,0l0,0l0.1,0l0,0l0,0l0,0l0,0l0.1,0l0,0l0,0l0,0l0,0l0,0l0,0v0l0,0l0,0l0,0l0,0l0,0l0,0l0,0l0,0
			l0,0l0,0l0,0l0,0l0,0l0,0.1l0,0l-0.1,0l0,0l0,0l0,0l0,0l0,0l0,0l0,0l0,0l0,0l0.1,0l0,0l0,0l0,0l0,0l0,0l0,0l0,0l0,0l0,0l0,0l0,0
			l0,0v0l0,0.1l0,0l0,0v0l0,0l0,0v0l0,0.1l0.1,0l0,0.1l0,0l0,0l0,0l0,0l0,0l0,0l0,0l0,0l0,0l0,0.1l0,0l0,0l0,0l0,0l0,0l0,0l0,0l0,0
			l0,0l0,0l0.1,0l0,0l0.1,0l0,0l0,0l0,0l0,0l0,0l0,0v0l0,0l0,0l0,0l0,0l0,0.1l0.1,0l0,0l0,0l0,0.1l0,0l0,0l0,0l0,0l0,0l0,0v0l0,0
			l0,0l0,0l0,0l0,0l0,0l0,0v0l0,0l0,0l0,0.1l0,0v0l0,0l0,0v0l0,0l0,0l0,0l0,0l0,0l0,0l0,0l0,0v0l0,0v0h0l0,0l0,0l0,0l0,0l0,0l0,0
			l0,0l0,0l0,0l0,0l0,0l0,0l0,0h0v0l0,0l0,0l0,0.1l0,0.1l0,0l0,0l0,0l0,0l0,0l0,0l0,0l0,0l0,0l0,0l0,0l0,0.1l0,0l0,0l0,0.1l0,0l0,0
			l0,0l0,0l0,0l0,0l0,0.1l0,0.1l0,0.1l0,0l0.1,0l0,0l0,0v0l0.1,0l0,0l0,0l0,0l0,0l0,0l0,0l0,0l0,0l0,0l0,0l0,0l0,0l0,0v0l0,0l0,0
			l0,0l0,0v0l0,0l0,0l0,0l0,0l0,0l0,0l0,0v0l0,0l0,0l0,0l0,0l0,0l0,0l0,0l0,0l0,0l0,0l0,0h0l0,0l0,0l0,0l0,0v0l0,0l0,0l0,0l0,0l0,0
			l0,0l0,0l0,0l0,0l-0.1,0.1l0,0l0,0l0,0v0l0,0.1l0,0l0,0l0,0l0,0l0,0l0,0l0,0l0,0l0,0l0,0l0,0l0,0l0,0l0,0l0,0l0,0l0,0l0,0l0,0l0,0
			l0,0l0,0l0,0v0l0,0l0,0l0,0l0,0v0l0,0l0,0v0l0,0l0,0l0,0l0,0l0,0.1l0,0l0,0l0,0l0,0l0,0l0,0l0,0l0,0l0,0l0,0.1l0,0l0,0l0,0l0,0
			l0,0l0,0l0,0l0,0l0,0l0,0v0l0,0l0,0l0,0l0,0l0,0l0,0l0,0l0,0l0,0l0,0l0,0l0,0l0,0l0,0l0,0l0,0l0,0l0,0v0l0,0l0,0l0,0l0,0l0,0l0,0
			l0,0.1l0,0l0,0l0,0l0,0l0,0l0,0l0,0l0,0l0,0l0,0l0,0l0,0l0,0l0,0l0,0l0,0l0,0l0,0l0,0l0,0l0,0l0,0.1l0,0l0,0.1l0,0l0,0l0,0l0,0
			l0,0l0,0l0,0l0,0l0,0l0,0l0,0l0,0l0,0v0l0,0l0,0l0,0l0,0l0,0.1l0,0l0,0l0,0.1l0,0l-0.1,0.1l0,0v0l0,0l0,0l0,0.1l0,0.1l0,0l0,0l0,0
			l0,0l0,0h0l0,0l0,0l0,0l0,0l0,0v0l0,0v0l0,0l0,0l0,0l0,0l0,0l0,0l0,0l0,0l0,0l0,0l0,0l0,0l0,0l0,0l0,0l0,0v0l0,0l0,0l0,0l0,0l0,0
			v0l0,0l0,0l0,0l0,0l0,0l0,0l0,0l0,0l0,0l0,0l0,0l0,0l0,0v0h0l0,0l0,0l0,0l0,0l0,0l0,0l0,0l0,0l0,0l0,0l0,0l0,0l0,0l0,0l0,0l0,0
			l0,0l0,0v0l0,0l0,0l0,0l0,0l0,0l0,0l0,0l0,0l0,0l0,0l0,0l0,0l0,0l0,0l0,0l0,0l0,0l0,0l0,0l0,0l0,0l0,0l0,0l0,0l0,0l0,0l0,0l0,0
			l0,0l0,0l0,0l0,0l0,0l0,0l0,0l0,0l0,0l0,0v0l0,0l0,0l0,0l0,0l0,0l0,0v0l0,0v0l0,0l0,0l0,0l0,0l0,0l0,0L3,28l0,0l0,0l0,0l0,0.1l0,0
			l0,0l0,0l0,0l0,0l0,0v0l0,0.1l0,0l0,0l0,0l0,0l0,0l0,0.1l0,0l0,0.1l0,0.1l0,0l0,0v0l0,0l0,0l0,0l0,0l0,0l0,0l0,0l0,0l0,0l-0.1,0
			l0,0l0,0.1l0,0l0,0.1l0,0l0,0h0v0l0,0l0,0l0,0l0,0l0,0l0,0l0,0l0,0l0,0l0,0.1l0,0l0,0.1l0,0l0,0l0.1,0l0.1,0l0,0l0,0v0l0,0l0,0.1
			l0,0l0,0l0,0l0,0l0,0l0,0l0,0l0,0l0,0l0,0.1l0,0l0,0v0l0,0l0,0l0,0l0,0l0,0l0,0l0,0l0,0l0,0l0.1,0l0,0l0,0l0,0l0,0l0,0l0,0l0,0
			l0,0l0,0l0,0l0,0l0,0l0,0l0,0h0l0,0l0,0.1l0,0l0,0l0,0l0,0l0,0l0,0l0,0.1l0,0.1l0,0l0,0l0,0l0,0l0,0l0,0v0l0,0.1l0,0h0l0,0l0,0
			l0,0l0,0l0,0l0,0l0,0l0,0l0,0l0,0l0,0l0,0l0,0l0,0l0,0l0,0l0,0v0l0,0l0,0l0,0l0,0l0,0l0,0l0,0v0l0,0l0,0l0,0l0,0l0,0l0,0l0,0l0,0
			v0l0,0l0,0l0,0l0,0l0,0l0,0l0,0l0,0l0,0l-0.1,0.1l0,0l0,0.1l0,0h0l0,0l0,0l0,0l0,0l0,0v0l0,0l0,0l0,0.1l0,0l0,0l0,0l0,0v0l0,0l0,0
			l0,0l0,0l0,0l0,0l0,0v0l0,0l0,0l0,0l0,0l0,0l0,0l0,0l0,0l0,0l0,0v0h0l0,0l0,0l0,0l0,0l0,0l0,0l0,0l0,0l0,0l0,0l0,0l0,0l0,0l0,0.1
			l0,0l0,0l0,0h0l0,0l0,0.1l0,0l0,0.1l0,0l0,0l0,0.1l0,0.1l0,0l0,0.1l0,0l0,0l0,0l0,0l0,0v0l0,0l0,0l0,0l0,0l0,0l0,0l0,0l0,0l0,0
			l0,0l0,0l0,0.1l0,0.1l0,0.1l0,0.1l0,0l0,0l0,0l0,0l0,0l0,0l0,0l0,0l0,0l0,0l0,0l0,0.1l0,0l0,0v0l0,0l0,0l0,0l0,0l0,0l0,0l0,0l0,0
			l0,0l0,0l0,0l0,0l0,0l0,0l0,0l0,0l0,0l0,0l0,0l0,0l0,0l0,0l0,0l0,0l0,0l0,0l0,0h0l0,0l0,0l0,0l0,0h0l0,0l0,0.1l0,0l0,0l0,0l0,0h0
			l0,0l0,0l0,0l0,0l0,0l0,0l0,0l0,0l0,0l0,0l0,0l0,0l0,0l0,0l0,0l0,0l0,0l0,0l0,0l0,0l0,0l0,0.1l0,0.1l0,0.1l0,0l0,0l0,0l0,0v0l0,0
			l0,0l0,0l0,0l0,0.1l0,0l0,0l0,0l0,0l0,0l0,0l0,0l0.1,0l0,0l0,0l0,0l0,0l0,0l0,0l0,0l0,0l0,0l0,0l0,0l0,0.1l0,0l0,0l0,0l0,0l0,0
			l0,0l0,0v0l0,0h0v0l0,0l0,0l0,0l0,0l0,0l0,0l0,0l0,0l0,0l0,0l0,0l0,0l0,0l0,0l0,0v0l0,0l0,0l0,0l0,0l0,0l0,0l0,0l0,0l0,0l0,0l0,0
			l0,0l0,0l0,0l0,0l0,0l0,0l0,0l0,0l0,0l0.1,0.2l0,0.1l0,0.1l0,0l0.1,0l0,0v0l0,0l0,0l0,0l0,0l0,0l0,0l0,0l0,0l0,0.1l0,0l0,0l0.1,0
			l0,0l0,0l0,0l0.1,0l0,0l0,0l0,0l0,0l0,0.1l0.1,0h0l0,0l0,0l0,0l0,0.1l0,0.1l0,0l0,0.1l0,0l0,0l0,0l0,0l0,0l0,0l0,0h0l0,0l0,0l0,0
			l0,0l0,0l0,0v0l0,0l0,0l0,0h0l0,0l0,0l0,0l0,0l0,0l0,0l0,0l0,0l0,0l0,0l0,0l0,0l0,0l0,0v0l0,0l0,0l0,0l0,0l0,0l0,0l0,0l0,0l0,0
			l0,0l0,0l0,0l0,0l0,0l0,0l0,0l0,0l0,0.1l0,0l0,0.1l0,0.1l0,0l0,0l0,0l0,0l0,0l0,0l0,0.1l0,0l0,0l0,0l0,0v0l0,0h0l0,0l0,0l0,0l0,0
			l0,0l0,0l0,0l0,0l0,0l0,0.1l0,0.1l0,0l0,0l0,0.1l0,0l0,0.1l0,0l0,0l0,0l0,0l0,0l0,0l0,0l0,0l0,0l0,0l0,0l0,0l0,0.1l0,0.1l0,0.1
			l0,0l0,0l0,0.1l0,0l0,0.1l0,0l0,0.1l0,0l0,0l0,0l0,0l-0.1,0.2l0,0.1l0,0l0,0l0,0l0,0.1l0,0.1l0,0l0,0l0,0.1l0,0.1l0,0.1l0,0.1
			l0,0.2l0,0l0,0l0,0.1l0,0l0,0.1l0,0.1l0,0l0,0v0l0,0l0,0v0l0,0l0,0l0,0l0,0h0l0,0l0,0l0,0.1l0,0l0,0l0,0.1l0,0.1l0,0.1l0,0l0,0
			l0,0.2l0,0l0,0l0,0l0,0.1l0,0.1l0,0.1l0,0l0,0l-0.1,0l0,0l0,0.1l0,0.1l0,0l0,0l0,0l0,0l0,0l0,0l-0.1,0l0,0l0,0l0,0L4.2,44l0,0v0
			l0,0l0,0l0,0.1v0L4,44.3L4,44.4l0,0l0,0l0,0l0,0l-0.1,0.1l-0.2,0.1l-0.3,0.2l0,0l-0.1,0.1l0,0.1l-0.2,0.1l0,0l0,0l-0.1,0.1l0,0
			l-0.2,0.1l0,0v0l0,0l0,0l0,0l0,0l0,0.1l0,0.1l0,0.1l0,0.1l0,0l0,0.1l0,0.1l0,0l0,0l0,0l0,0l0,0l0,0l0,0l0,0.1l0.3,0.4l0,0l0,0
			l0.1,0.1l0,0.1L3,47L3,47l0.1,0.2l0,0l0,0.1l0,0.1l0,0l0,0l0,0.1l0,0.1l0,0.1l0,0l0.1,0.1L3.4,48l0.1,0.1v0l0,0l0,0l0,0.1l0,0l0,0
			l0,0l0,0l0,0l0,0l0.1,0l0.1,0l0.1,0l0.1,0h0l0.1,0l0.1,0l0.1,0h0l0,0l0.1,0l0.1,0.1l0,0l0.1,0l0.1,0.1l0.1,0.1l0.1,0l0.1,0l0.1,0
			l0.1,0.1l0.1,0L5.3,49l0,0l0,0.1l0,0l0,0.1l0,0.1l0,0.1l0,0l0,0l0,0v0l0,0l0.1,0l0,0.1v0l0,0l0,0l0,0l0,0l0,0l0,0.1l0,0l0,0.1v0
			l0,0.2l0,0.3l0,0.4l0,0l0,0l0,0.3l0,0.3l0,0l0,0.3l0,0l0,0.3l0,0l0,0.1l0,0.2l0,0l0,0.1l0,0l0,0.1l0,0.1l0,0.7l0,0l0,0.2l0,0.6
			l0,0l0,0.2l0,0l0,1l0,0l0,0l0,0.1l0,0.1l0,0l0,0l0,0.1l0,0.2l0,0l0,0.5l0,0.2l0,0.2l0,0.7v0l0,1l0,0.2l0,0.1l0,0.1l0,0.3l0,0.1
			l0,0l0,0.1l0,0l0,0.2l0,0.3l0,0.3l0,0.1l0,0.1l0,0.1l0,0.1l0,0.1l0,0l0,0l0,0.2l0,0l0,0.2l0,0l0,0.2l0,0l0,0.1l0,0l0,0l0,0.1l0,0
			l0,0.2l0,0l0,0.2l0,0.5l0,1l0,0.9l0,0l0,0.1l0,0l0,0l0,0.2l0,0l0,0.1l0,0l0,0.2l0,0l0,0.1l0,0l0,0.2l0,0l0,0.1l0,0l0,0.7l0,0
			l0,0.3L17,67.3l0-3.2l-0.7,0l0-0.4l0.2,0l0-0.5l0.4,0l0-1.1l2.1,0l0-2.6c0.1,0.1,0.3,0.1,0.4,0.2c0.1,0.1,0.2,0.2,0.3,0.3l7.3-0.1
			c0.2,0,0.3-0.2,0.3-0.3c0-0.2,0-0.3,0.1-0.5c0-0.1,0-0.2,0-0.2c0-0.1,0-0.2,0-0.3c0-0.2,0.1-0.4,0.2-0.5c0.3-0.2,0.6-0.2,0.9-0.4
			c0,0,0,0,0,0l0-0.4l-1.1,0l0-0.5l-1.1,0l0-3.1l-2.1,0l-0.1-3.6l-1,0l0-0.5H21l0-1l0.6,0l0-0.4l0.5-0.1l0-3.8l-1,0l-0.1-7l-0.6,0
			L20.2,37l-3.5,0l-0.1-12.6l3.2,0l0-1.1l-0.5,0c-0.1,0-0.3,0-0.3-0.1c-0.1-0.1-0.1-0.2-0.2-0.2l0-3.3l1,0l0-0.9l0.4,0l0-0.7l2.6,0
			l-0.1-9.3l0,0.1l-0.1,0l-0.1,0l-0.1,0l-0.1,0l-0.1,0l-0.1,0l-0.1,0l-0.1,0l-0.1,0l0,0l-0.1-0.1l0,0l0,0l0,0l-0.1,0l-0.1,0l0,0l0,0
			l0,0l0,0l0,0l-0.1,0l0,0l-0.1-0.1l-0.1,0l-0.1,0l0,0l0-0.1l0,0l0-0.1l-0.1-0.1L20.8,8l0,0l-0.1-0.1l0,0l0-0.1l0,0l0-0.1l0,0l0-0.1
			l-0.1-0.2l0-0.1l0-0.1l0.1,0l0,0L20.6,7l0-0.1l0,0l0-0.1l0.1,0l0,0l0-0.1l-0.3-1.4l-0.2,0l0-1.2l-0.2-0.3l0-0.1l-0.2-0.9l0-0.2
			l-0.2-1l0-0.2l0.1-0.1l-0.2,0l-0.1,0l-0.2-0.1L18.9,1l0,0l-0.3-0.2l-0.1,0l-0.1,0l-0.1,0L18,0.9l-0.3,0l-0.1,0l-0.2-0.1l-0.1,0
			l0,0l0,0l-0.1,0l-0.1,0L17,0.6L16.9,0.5L16.9,0.5L16.9,0.5L16.9,0.5z"/>
	</g>
	<g>
		<defs>
			<rect id="SVGID_15_" x="0.2" y="0.5" width="62.5" height="71"/>
		</defs>
		<clipPath id="SVGID_16_">
			<use xlink:href="#SVGID_15_"  style="overflow:visible;"/>
		</clipPath>
		<path class="st7" d="M22.6,8.8l0.1,9.3l-2.6,0l0,0.7l-0.4,0l0,0.9l-1,0l0,3.3c0,0.1,0.1,0.2,0.2,0.2c0.1,0.1,0.2,0.1,0.3,0.1
			l0.5,0l0,1.1l-3.2,0L16.6,37l3.5,0l0.2,0.2l0.6,0l0.1,7l1,0l2.1,0c-0.3-0.1-0.5-0.3-0.7-0.6l4.9,0l0.1,3.2l2.1,0l0,1.8l4.1,0
			l0,1.4l2.3,0l0,0l0.1-0.1l0,0l0,0l0-0.1l0.2-0.2l0-0.1l0-0.1l0,0l0,0v0l0,0l0-0.1l0,0l0,0l0.1-0.1l0.1-0.1l0,0l0,0l0-0.1l0,0l0,0
			l0,0l0-0.1l0,0l0.1,0l0,0l0,0l0,0l0,0l0,0l0-0.1l0,0l0,0l0,0v0l0,0l0-0.1l0,0l0-0.1l0,0l0,0l0,0l0,0l0-0.1l0,0l-0.1,0l-0.1,0l0,0
			l0-0.1l0,0l0,0l0,0l0,0l0,0l0-0.1l0-0.1l0-0.1l0,0l-0.1-0.1l0-0.1l-0.1-0.1l0,0l0-0.1l0-0.1l0-0.1v0h0l0,0l-0.1,0l-0.1-0.1l0,0
			l0,0l0,0l0,0l0,0l0,0l-0.1-0.1l-0.1,0l0,0l0,0h0l-0.1,0l0,0l-0.1,0.1l-0.1,0l0,0l-0.1,0l-0.1,0l-0.1,0l0,0l-0.2,0l-0.1-0.1l0,0
			l0,0l0-0.1l0-0.1l0,0l0-0.1l0-0.1l0,0l0-0.1l0-0.1l0,0l0-0.1l0,0l0,0v0l0,0l0,0l0,0l0,0l0-0.1l0-0.1l0-0.1l0-0.1l0-0.2l0-0.1v0
			l0,0l0-0.1l0,0l0,0l0,0l0,0l0.1,0l0,0l0,0l0,0l0.1,0l0,0l0,0l0,0l0,0l0,0l0.1-0.1l0,0l0,0l0,0l0,0l0,0l0,0l0,0l0,0l0.1-0.1h0
			l0-0.1l0-0.1l0-0.1l0,0l0-0.1l0,0l0,0l0,0l0,0l0-0.1l0-0.1v0l0,0l0,0v0l0-0.1l0,0l0,0l0,0l0,0l0,0l0.1,0l0,0l0-0.1v0l0-0.1v0
			l0-0.1l0-0.1l0.1-0.2l0.1-0.1l0,0l0,0l0,0l0,0l0,0l0,0l0.1,0l0,0l0,0v0l0.1,0l0,0l0,0l0,0l0-0.1l0.1-0.1l0,0l0.1,0l0,0l0-0.1l0,0
			h0l0,0l0.1,0l0,0l0,0l0.1,0l0,0l0,0l0,0l0.1,0l0.1,0l0.1,0l0,0l0.1,0l0.1,0l0-0.1l0,0l0-0.1l0,0l0,0l0.1-0.1l0.1-0.1l0,0l0,0l0,0
			l0,0h0l0.1,0l0.1,0l0,0l0.1,0l0,0l0.1,0l0,0l0,0l0,0l0,0l0,0l0,0l0,0l0,0l0.1,0l0,0l0,0l0,0v0l0,0l0-0.1v0l0-0.1l0.1-0.1l0.1,0h0
			l0.1,0l0.1,0l0,0h0l0.1,0.1l0.1,0l0.1,0h0l0.1,0h0l0,0l0,0l0,0v0l0,0l0,0v0l0,0l0,0l0,0l0,0v0l0-0.1l0-0.1l0,0l0,0l0-0.1l0,0
			l0-0.1l0,0l0,0l0,0l0,0v0l0,0l0,0l0.1,0l0,0l0.1,0l0.1,0l0,0l0-0.1v-0.4l0-0.5l0-0.1l0-0.1l0-0.5v-0.2l0-0.2l0-0.3l0-0.1l0,0
			l0-0.1l0,0l0-0.1v0l0-0.1l0,0l0-0.1l0-1l0,0l0-0.1l0-0.6v-0.2l0-0.1l0-0.3l0,0l0-0.7l0-0.1l0-0.1l0-0.2l0-0.4l0-0.1l0,0l0,0l0,0
			l0,0.1l0,0l0,0l0,0l0,0l0,0.1l0,0l0,0l0-0.1l0,0l0.1,0.1l0.1,0l0.1,0l0,0l0,0l0.1,0l0,0l0,0l0,0l0,0l0,0l0,0l0-0.1l0,0l0,0
			l0.1-0.1l0,0l0,0l0,0l0,0l0,0l0-0.1l0,0l0,0l-0.1,0l-0.1,0l0-0.1l0,0l0,0l0,0l0,0l0-0.1l0,0l0.1,0l0,0l0,0l0.1,0l0.1,0l0,0l0,0v0
			l0-0.1l0,0l0-0.1l0,0l0-0.1l0.1-0.1l0.1,0l0.1,0l0.1,0l0.2,0.1l0.1,0.1l0.2,0.2l0.1,0.1l0.1,0l0,0l0,0l-0.1-0.1l-0.3-0.4l-0.2-0.3
			l0-0.1l0-0.1l0,0l0.1-0.1l0,0l0.1,0l0,0l0,0l0.1,0l0,0l0-0.1v0l0.1,0l0.1-0.1l0.1,0l0.1,0l0,0l0,0l0.1-0.1l0.1,0l0.1,0l0.1-0.1
			l0.3-0.2l0.3-0.2v0l0.1,0l0.1-0.1l0.1-0.1l0.1,0l0.1,0l0.2-0.2l0.1,0l0.1,0l0.2-0.1l0.1-0.1l0,0l0.1-0.1l0-0.1l0.1-0.1l0,0l0,0
			l0.2-0.2l0,0l0.2-0.2l0.1,0l0.1,0l0.1,0l0.1,0l0-0.1l0,0l0.1-0.1l0.1-0.2v0l0,0l0,0v0l0-0.1l0.1-0.1l0.1,0l0,0l0,0l0.1-0.1l0-0.1
			l0.1-0.2l0.1,0l0.1-0.1l0.1,0l0.1-0.1v0l0.1-0.1l0,0l0.1,0l0.2,0l0.2-0.2l0,0l0-0.1l0,0l0.1-0.1l0.1-0.1l0.1-0.1l0.1-0.1l0,0
			l0.1,0l0.1,0l0-0.1l0-0.1l0,0l0.1-0.1l0-0.1l0,0l0-0.1l0.1-0.1l0-0.1l0.1-0.1l0.1-0.2l0.1-0.2l0,0l0,0l0.1-0.1l0,0l0,0l0-0.1
			l0.1-0.1l0,0l0-0.1l0-0.1v0l0,0l0.2-0.2l0.1-0.1l0.1-0.1l0-0.1l0,0v0l0-0.1l0-0.1l0.1-0.1l0,0l0,0l0,0l0,0l0.1-0.2l0-0.1l0.2-0.1
			l0.1,0l0,0l0.1-0.2l0.1-0.1l0-0.1l0.1-0.1l0,0v0l0,0l0.1,0l0.1-0.1l0,0l0.1-0.1l0,0l0.2-0.1l0,0l0.1-0.1l0.2-0.2l0,0l0.1,0l0,0
			l0,0l0,0l0,0l0,0l0-0.1l0,0l0.2-0.2l0.1-0.1l0,0l0.1,0l0.2-0.2l0.1,0l0,0l0,0l0.2-0.2l0.2-0.1l0.2-0.2L53,21l0.1,0l0.2-0.1
			l0.3-0.2l0,0l0,0l0,0l0.2-0.1l0.2-0.1l0.3-0.1l0.1-0.2l0.1,0l0.1,0l0,0l0.2-0.1l0.3-0.1l0,0l0.1-0.1l0-0.1l0.1-0.1l0.2,0l0.1,0
			l0.2,0l0.1,0l0.1,0l0,0l0,0l0.1,0l0-0.1l0,0l0,0l0,0l0,0l0,0l0,0l0.1,0l0.1,0l0.2-0.1l0.1,0l0,0l0.1,0l0,0l0.2-0.1l0.1,0l0.2,0
			l0.1-0.1l0.1-0.1l0,0l0,0l0.2,0l0,0l0.1,0l0.1-0.1l0.1,0l0,0l0.1,0l0-0.1l0,0l0,0l0.1-0.1l0,0l0,0l0.2-0.1l0.3-0.1l0.1,0l0.2-0.2
			l0.1,0l0,0l0-0.1l0-0.1v0l0,0l0,0l0,0l0.4-0.1l0,0l0,0l0.1,0l0,0l0,0l0.1,0l0,0l0.1,0l0,0l0,0l0.2-0.1l0.2-0.1l0.1-0.1l0,0l0,0
			l0.1-0.1l0.1-0.1L61,17l0.1-0.1l0.1-0.1l0.2-0.1l0,0l0.1,0l0,0l0-0.1l0-0.1l0-0.1l0-0.1l0.1,0l0,0l0.1,0l0,0v0h0l0.1,0.1l0.1,0.1
			l0.1,0l0.1,0v0l0.1,0l0-0.1l0-0.1l0.1-0.1l0.3-0.1l0.1,0l0,0v0l0-0.1l-0.6,0.2l0,0.1l-0.1,0l0,0l0,0l0,0l-0.1,0l-0.1,0l-0.1,0l0,0
			l0,0l0-0.1l0,0l0,0l0,0v0l0,0l0,0l0,0l-0.1,0l0,0l0,0l0,0v0h0l0,0l0,0l0,0l0,0v0l0,0l0,0l0,0l0,0l-0.1,0l0,0l0,0l0,0l0,0l0,0l0,0
			l0,0l0,0l0,0l0,0L61,16.1l0,0l0,0l0,0l0,0l0,0l0,0l0,0l0-0.1l0,0l0,0l0,0l0,0l0,0v0l0,0l0,0l0,0l0,0v0l-0.1,0l0,0l0,0l0,0l0,0l0,0
			l0,0l-0.1,0l-0.1,0l0,0l0,0l-0.1,0l0,0v0l0,0l0,0l-0.1,0l0,0l-0.1,0v0l0,0.1L60,16.2l0,0l0,0l0,0l0,0v0l0,0.1l0,0.1l0,0l-0.2,0
			l0,0l0,0v0v0l0,0l-0.1,0l0,0l-0.1,0l0,0l0,0l0,0l0,0l0,0l-0.1,0l0,0l-0.1-0.1l-0.1-0.1l0,0l0,0l0,0l-0.1,0l0,0.1l-0.1,0l0,0l0-0.1
			l0,0l-0.1,0l0,0l0,0l0,0l0,0l0,0l0-0.1l0-0.1l0-0.1l0-0.1l-0.1-0.1l0,0l0,0l0-0.1l0-0.1l-0.1,0l-0.1,0l0,0l0,0l0,0l-0.1-0.1
			l-0.1,0l-0.2,0l-0.2,0l-0.1,0l0,0l0,0l0,0l0,0l0,0l-0.1,0l0,0l-0.1,0l-0.1,0l-0.1,0L57,15.1l0,0l-0.1,0l0,0l-0.1,0l-0.1,0
			l-0.2,0.1l-0.1,0l-0.1,0l-0.1,0.1l0,0l-0.1,0l-0.1,0l-0.1,0l0,0l-0.1,0l-0.1,0l0,0l0,0l0,0l0,0l-0.1,0l-0.1,0l0,0l0,0l0,0l-0.1,0
			l0,0l0,0l0,0l0,0l0,0l-0.1,0l-0.1,0L55,15.3l-0.1,0l0,0l0,0l-0.1,0l0,0h0l0,0l-0.1,0l0,0l0,0l0,0l0,0l0,0l0,0v0l-0.1,0l0,0l0,0
			l-0.1,0l-0.3,0.1l-0.1,0l0,0l0-0.1l0.1-0.1l0-0.1L54,15l0,0l-0.1,0l0,0l0,0l-0.1,0l0,0l-0.1,0l-0.1,0l0,0l-0.1,0l-0.1,0.1L53,15.3
			l-0.1,0.1l-0.3,0l-0.1,0l-0.1-0.1v0l-0.1-0.1l0-0.1l0,0l0,0l0,0l0,0l-0.1,0l0,0l0,0l0,0l0,0l0,0l0,0l0,0l0,0l0,0l0.1-0.1l0.1,0
			l0-0.1l0-0.1l0,0l0,0l0,0l0,0l-0.1,0l0,0l0-0.2l-0.1,0l-0.1,0l0,0l0,0l0,0l0,0l0,0.1l-0.1,0l0,0l0-0.1l0-0.2l0-0.3h0l0,0l0,0
			l0-0.1l0-0.1l0,0l0,0l-0.2,0.1l-0.1,0l-0.1,0l0-0.1l-0.1,0.1l-0.1,0l-0.1,0.1l-0.1,0L50.6,14l-0.2,0.2l0,0l-0.1,0l-0.1,0.1l0,0
			l-0.1,0l0,0l0,0l-0.1,0l-0.1,0l-0.1,0l0,0.1l-0.1,0l0,0v0l0,0l-0.1,0l0,0.1l-0.1,0l-0.1,0l0,0l0,0.1l0,0l-0.2,0.1l0,0v0l0,0l0,0
			L49.2,15L49,15.2l0,0l-0.1,0l-0.2,0.3l-0.1,0l-0.1,0l-0.1,0.1l-0.1,0.1l-0.1,0l-0.1,0.1l-0.1,0l-0.1,0l0,0l-0.1,0l0,0l0,0v0l0,0
			l0,0v0l0,0l-0.1,0L47.5,16l-0.1,0l-0.1,0l-0.1,0.1l-0.2,0.1L47,16.2l-0.1,0l0,0l0,0L46.9,16l0-0.1l0,0l-0.1,0l-0.2,0l-0.4,0.2
			l-0.2,0.1l-0.1-0.1l0-0.1l0-0.1l0-0.3l0.1-0.1l-0.1-0.1l-0.1,0l-0.1,0l-0.2,0l-0.2,0.1l-0.1-0.2l0,0l0,0l-0.1,0l0,0l0,0l0,0l0,0
			l0,0l0,0l-0.1,0l0-0.1l0-0.1l-0.1,0l0,0l0,0l-0.1,0l-0.1,0l0,0l0,0l0-0.1l0,0l0-0.1l0-0.1l0,0l0,0l0,0l0,0l0-0.1l0,0l0-0.1l0-0.1
			l0,0l-0.1,0l0,0l0,0l0-0.1v0l0.1-0.1v0l0-0.1l0-0.1l0,0l-0.2-0.1l0,0l0,0.1l0,0l0,0l0,0l0,0l0,0l0,0l0,0l-0.1,0l0,0.1l0,0l0-0.1
			l0,0l0,0l-0.1,0l-0.1,0l0,0l-0.1,0l0,0l0,0l-0.1,0l-0.1,0l0-0.1l-0.1-0.1l-0.1-0.1l-0.1,0h0l0,0l-0.1,0l0,0l0,0l-0.1,0l-0.1,0l0,0
			l0,0l0,0l-0.1,0h0l0,0l0,0v0l0,0l0,0v0l0,0l0,0l0,0l0,0l0,0v0l0,0l-0.1,0h0l0,0l0,0l0,0l0,0l0,0v0l0,0l0,0l-0.1-0.1l-0.1-0.1
			l0-0.2l0-0.1l0-0.1l0.1-0.3L42,13L42,12.9l-0.1,0l0-0.1l0,0l0,0l0,0l-0.1-0.1l-0.1,0l-0.1,0l0,0.1l-0.1,0l-0.4,0l0-0.1l-0.1,0
			l-0.1,0.1l0,0l0,0l-0.1,0l0,0l-0.1,0l0,0.1l0,0l0,0l-0.1,0l0,0l0,0l-0.3-0.1L40,12.9l0,0.2l-0.1,0l0,0.1l0.1,0.1l-0.1,0.2l0,0.1
			l0,0h0l0,0.1l0,0.1l0.1,0.1l0,0.1l-0.1,0l-0.3,0l-0.1,0l0,0l-0.1,0l0,0l0,0l0,0l0,0l0,0l-0.1,0l0,0l-0.1,0.1l-0.1,0l0,0l0-0.1l0,0
			l0,0l0,0l0,0l0,0l0,0l0,0l0,0l0,0l0,0l0,0l0-0.1l0-0.1L39,13.7l-0.1-0.2l-0.1-0.1l0,0l0,0l-0.1,0v0l0,0l0-0.1l-0.1-0.2l0-0.1
			l-0.1-0.2l-0.1-0.2l0.2-0.4l0-0.2l-0.1,0l-0.1-0.1l0,0l0,0l0,0l0,0l0,0l-0.1-0.2l-0.1,0l-0.2,0l-0.3,0.1L37,11.8l-0.1,0l-0.2,0
			l-0.2-0.2l0-0.1l0,0l0.1-0.1l0-0.1l0.1,0l0.2,0L37,11l0.1,0l0.1,0l0.1,0l0,0l0,0l0,0v0l0-0.1h0l0,0l0,0l0-0.1l-0.1-0.2l-0.2,0
			l-0.6,0.1L35,10l-0.1,0l-0.2-0.1l-0.2,0l0-0.3l0,0l-0.2,0.1l-0.8,0l-0.4,0l-0.3,0h0l0,0l0,0l-0.2-0.2l-0.4,0l-0.7,0.2l0,0v0l0,0.1
			v0l0,0l0,0l0,0l-0.1,0l0,0.1l0,0l0,0l-0.1,0l-0.1,0h0l0,0l0,0l0,0l0,0l0,0l0,0l0,0l-0.1,0l0,0l0,0l0,0l0,0l0,0l-0.1,0l-0.1,0l0,0
			v0l0,0l0,0.1l0,0.1v0l0,0.1l0,0.1l0,0.1l0,0l0,0l-0.1,0l0,0l-0.1,0L30,10.8l0,0l-0.1,0l-0.1,0l-0.1,0l-0.1,0l-0.1,0l0,0l-0.1,0
			l-0.1,0l0,0l0,0.1l0,0l0,0l0,0l0,0l0,0l0,0l0,0l0-0.1l0,0l0,0l0,0l0,0.1l0,0v0l0,0l-0.1,0l-0.1,0l-0.1,0l0,0l-0.1,0l0,0l0,0l0,0h0
			l0,0l0,0l0,0l0,0l0,0l0,0l0,0l0,0l0,0l-0.1,0l0,0L28,11L28,11l-0.1,0l-0.1,0l0,0l0,0l-0.1,0l0,0l0,0l0,0l0,0l0,0l0-0.1l0,0l0,0
			l0-0.1v0l0-0.1l0-0.1l0-0.1l0,0l0-0.1l0,0l0-0.1l-0.1-0.1l0-0.1v0l0,0l0,0l0,0l0,0l0-0.1l0,0l0,0l0,0l-0.1,0l-0.2,0l0,0l-0.2-0.1
			l0,0l0,0l0,0l-0.1,0l-0.1,0l-0.1,0l-0.1,0l0,0l-0.1,0l-0.1,0l-0.1,0l-0.1,0l-0.2,0l0,0l-0.1,0l-0.1,0l-0.1,0l0,0l0,0l0,0l0,0
			l-0.1,0l-0.1,0l-0.1,0l-0.1,0l-0.1,0l-0.2,0l-0.1,0h0l-0.2,0l-0.1,0l-0.1,0l-0.1,0l-0.1,0l-0.1,0l0,0l0,0l0-0.1l0,0l0-0.2l0-0.1
			l0,0l0-0.1l0-0.1l0,0l-0.1,0l-0.1-0.1l-0.1,0l-0.1,0l-0.1,0l-0.2,0.1l-0.1,0l-0.1,0l-0.1,0l-0.1,0l-0.1,0l0,0l-0.1,0l-0.1,0l0,0
			l0,0L22.6,8.8L22.6,8.8L22.6,8.8z"/>
	</g>
</g>
<g>
	<g>
		<defs>
			<rect id="SVGID_17_" x="26.1" y="48" width="11.5" height="11.9"/>
		</defs>
		<clipPath id="SVGID_18_">
			<use xlink:href="#SVGID_17_"  style="overflow:visible;"/>
		</clipPath>
		<polygon class="st8" points="32.5,58.7 32.4,58.7 32.4,58.7 32.3,58.7 32.2,58.7 32,58.7 32,58.7 31.9,58.7 31.9,58.7 31.8,58.7 
			31.7,58.7 31.6,58.7 31.6,58.7 31.5,58.7 31.4,58.7 31.4,58.7 31.2,58.7 31.2,58.7 31.1,58.7 31.1,58.7 31,58.7 30.8,58.7 
			30.7,58.7 30.7,58.7 30.6,58.7 30.5,58.7 30.5,58.7 30.5,58.7 30.4,58.7 30.4,58.7 30.4,58.7 30.3,58.7 30.3,58.7 30.2,58.7 
			30.2,58.7 30.1,58.7 30.1,58.7 30.1,58.7 30,58.7 30,58.7 29.8,58.7 29.8,58.7 29.7,58.7 29.5,58.7 29.4,58.7 29.3,58.7 
			29.2,58.7 29.1,58.7 29.1,58.7 28.9,58.7 28.7,58.7 28.6,58.7 28.6,58.7 28.5,58.7 28.4,58.7 28.3,58.7 28.2,58.7 28.2,58.7 
			28.1,58.7 27.9,58.7 27.8,58.7 27.8,58.7 27.6,58.7 27.5,58.7 27.5,58.7 27.3,58.7 27.3,58.7 27.3,58.6 27.3,58.6 27.3,58.6 
			27.4,58.6 27.4,58.6 27.4,58.6 27.4,58.7 27.5,58.7 27.5,58.7 27.5,58.6 27.5,58.6 27.5,58.5 27.4,58.5 27.4,58.5 27.4,58.5 
			27.5,58.4 27.5,58.4 27.5,58.4 27.4,58.4 27.4,58.4 27.4,58.4 27.4,58.3 27.5,58.3 27.5,58.3 27.5,58.2 27.5,58.2 27.5,58.2 
			27.4,58.2 27.4,58.2 27.4,58.2 27.4,58.2 27.4,58.2 27.4,58.1 27.5,58.1 27.5,58.1 27.5,58.1 27.5,58.1 27.5,58.1 27.5,58.1 
			27.6,58.1 27.6,58 27.6,58 27.6,58 27.6,58 27.6,57.9 27.6,57.9 27.6,58 27.7,58 27.7,58 27.7,57.9 27.7,57.9 27.8,57.9 
			27.8,57.9 27.8,57.8 27.8,57.8 27.8,57.8 27.8,57.8 27.8,57.8 27.8,57.8 27.9,57.8 27.9,57.8 27.9,57.8 27.9,57.8 27.9,57.8 
			27.9,57.8 27.9,57.7 27.9,57.8 27.9,57.8 27.9,57.8 27.9,57.8 27.9,57.8 28,57.7 28.1,57.7 28.1,57.7 28.1,57.6 28.1,57.6 
			28.2,57.6 28.2,57.6 28.2,57.6 28.2,57.6 28.3,57.6 28.3,57.7 28.4,57.7 28.4,57.6 28.4,57.6 28.4,57.6 28.4,57.6 28.5,57.6 
			28.5,57.6 28.5,57.6 28.5,57.7 28.5,57.6 28.5,57.6 28.5,57.6 28.5,57.6 28.5,57.6 28.5,57.6 28.5,57.5 28.5,57.5 28.5,57.5 
			28.5,57.4 28.5,57.4 28.5,57.3 28.5,57.2 28.4,57.2 28.3,57.2 28.2,57.2 28.1,57.2 28.1,57.2 28.1,57.2 28,57.2 27.9,57.2 
			27.8,57.2 27.7,57.2 27.6,57.2 27.6,57.2 27.5,57.2 27.5,57.2 27.5,57.1 27.5,57 27.5,56.9 27.5,56.8 27.5,56.8 27.5,56.7 
			27.5,56.7 27.5,56.7 27.4,56.7 27.3,56.7 27.3,56.7 27.2,56.7 27.1,56.7 27,56.7 27,56.7 26.8,56.7 26.8,56.7 26.8,56.7 
			26.6,56.7 26.6,56.7 26.5,56.7 26.5,56.6 26.5,56.6 26.5,56.5 26.5,56.5 26.5,56.5 26.5,56.4 26.5,56.3 26.5,56.3 26.5,56.2 
			26.5,56.1 26.5,56 26.5,56 26.5,55.9 26.5,55.9 26.5,55.8 26.5,55.7 26.5,55.6 26.5,55.6 26.5,55.5 26.5,55.5 26.5,55.4 
			26.5,55.3 26.5,55.2 26.5,55.1 26.5,55 26.5,55 26.5,54.8 26.5,54.8 26.5,54.7 26.5,54.7 26.5,54.7 26.5,54.6 26.5,54.6 
			26.5,54.4 26.5,54.2 26.5,54.2 26.5,54.1 26.5,54.1 26.5,54 26.5,54 26.5,53.9 26.5,53.9 26.5,53.8 26.5,53.8 26.5,53.7 
			26.5,53.6 26.6,53.6 26.7,53.6 26.8,53.6 26.8,53.6 26.9,53.6 27,53.6 27.2,53.6 27.4,53.6 27.5,53.6 27.6,53.6 27.6,53.6 
			27.7,53.6 27.8,53.6 27.8,53.6 27.9,53.6 28,53.6 28.1,53.6 28.2,53.6 28.4,53.6 28.5,53.6 28.5,53.6 28.5,53.6 28.5,53.5 
			28.5,53.4 28.5,53.4 28.5,53.3 28.5,53.2 28.5,53.1 28.5,53.1 28.5,53.1 28.5,53 28.5,53 28.5,52.9 28.5,52.9 28.5,52.9 
			28.5,52.8 28.5,52.8 28.5,52.7 28.5,52.6 28.5,52.6 28.5,52.6 28.5,52.6 28.5,52.6 28.6,52.5 28.5,52.5 28.5,52.5 28.6,52.5 
			28.6,52.5 28.6,52.5 28.5,52.5 28.6,52.5 28.6,52.4 28.5,52.4 28.5,52.4 28.6,52.4 28.6,52.4 28.7,52.4 28.7,52.4 28.7,52.4 
			28.8,52.4 28.8,52.4 28.8,52.3 28.8,52.3 28.8,52.3 28.8,52.3 28.8,52.3 28.8,52.2 28.8,52.2 28.8,52.2 28.9,52.2 28.9,52.1 
			28.9,52.1 28.9,52 28.9,52 28.9,52 28.9,52 28.9,52 28.9,51.9 29,51.9 29,51.9 29,51.9 29,51.8 29.1,51.8 29.1,51.8 29.1,51.7 
			29.1,51.7 29.1,51.7 29.1,51.7 29.2,51.7 29.2,51.6 29.2,51.6 29.2,51.6 29.2,51.6 29.2,51.6 29.2,51.6 29.2,51.6 29.3,51.6 
			29.3,51.6 29.3,51.5 29.4,51.5 29.4,51.6 29.4,51.6 29.4,51.5 29.4,51.5 29.5,51.5 29.5,51.5 29.5,51.5 29.5,51.4 29.5,51.4 
			29.5,51.4 29.6,51.4 29.6,51.4 29.6,51.3 29.6,51.3 29.5,51.3 29.5,51.3 29.5,51.3 29.5,51.2 29.5,51.2 29.5,51.2 29.5,51.1 
			29.4,51.1 29.4,51.1 29.4,51.1 29.4,51.1 29.4,51.1 29.4,51 29.4,51 29.5,51 29.5,51 29.5,51 29.5,51 29.5,50.9 29.5,50.9 
			29.6,50.9 29.6,50.9 29.6,50.9 29.6,51 29.7,51 29.7,51 29.7,50.9 29.7,50.9 29.7,50.9 29.8,50.9 29.8,50.8 29.8,50.8 29.8,50.9 
			29.8,50.9 29.8,50.9 29.8,50.9 29.8,50.8 29.9,50.8 29.9,50.9 29.9,50.9 29.9,50.9 29.9,50.9 30,50.9 30,50.8 30,50.8 30,50.8 
			30,50.8 30,50.8 30,50.8 30.1,50.8 30.1,50.8 30.1,50.8 30.2,50.7 30.2,50.7 30.2,50.7 30.2,50.7 30.2,50.7 30.3,50.7 30.3,50.7 
			30.3,50.7 30.3,50.7 30.4,50.7 30.4,50.6 30.4,50.6 30.4,50.6 30.4,50.7 30.4,50.7 30.5,50.7 30.5,50.7 30.5,50.7 30.5,50.7 
			30.5,50.7 30.5,50.6 30.5,50.6 30.5,50.6 30.5,50.5 30.6,50.5 30.6,50.5 30.6,50.5 30.5,50.5 30.5,50.5 30.5,50.4 30.6,50.4 
			30.6,50.5 30.6,50.4 30.6,50.4 30.6,50.3 30.6,50.2 30.6,50.2 30.6,50.1 30.6,50 30.6,50 30.6,49.8 30.6,49.7 30.6,49.5 
			30.6,49.4 30.6,49.4 30.7,49.4 30.7,49.3 30.7,49.2 30.7,49.2 30.7,49.2 30.7,49.1 30.7,49.1 30.7,49 30.7,49 30.7,48.9 
			30.7,48.9 30.7,48.8 30.7,48.8 30.7,48.6 30.7,48.6 30.7,48.6 30.7,48.5 30.7,48.5 30.7,48.5 30.8,48.5 31,48.5 31,48.5 31,48.5 
			31.1,48.5 31.2,48.5 31.3,48.5 31.3,48.5 31.4,48.5 31.4,48.5 31.5,48.5 31.7,48.5 31.8,48.5 31.8,48.5 31.9,48.5 32,48.5 
			32,48.5 32,48.5 32.1,48.5 32.2,48.5 32.4,48.5 32.4,48.5 32.5,48.5 32.5,48.5 32.6,48.5 32.6,48.5 32.7,48.5 32.7,48.5 
			32.7,48.5 32.8,48.5 32.8,48.5 32.9,48.5 32.9,48.5 32.9,48.5 33,48.5 33.1,48.5 33.3,48.5 33.4,48.5 33.4,48.5 33.5,48.5 
			33.6,48.5 33.7,48.5 33.7,48.5 33.8,48.5 34,48.5 34,48.5 34.1,48.5 34.1,48.5 34.2,48.5 34.2,48.5 34.3,48.5 34.3,48.5 
			34.5,48.5 34.5,48.5 34.6,48.5 34.7,48.5 34.7,48.5 34.7,48.6 34.7,48.6 34.7,48.7 34.7,48.8 34.7,48.8 34.7,48.8 34.7,48.9 
			34.7,49.1 34.7,49.2 34.7,49.3 34.7,49.4 34.7,49.4 34.7,49.5 34.7,49.7 34.7,49.8 34.7,49.8 34.7,49.8 34.7,49.9 34.8,49.9 
			34.8,49.9 34.9,49.9 34.9,49.9 35,49.9 35,49.9 35.1,49.9 35.1,49.9 35.2,49.9 35.2,49.9 35.3,49.9 35.4,49.9 35.5,49.9 
			35.6,49.9 35.7,49.9 35.8,49.9 35.8,49.9 35.9,49.9 36,49.9 36,49.9 36.2,49.9 36.3,49.9 36.4,49.9 36.4,49.9 36.5,49.9 
			36.6,49.9 36.7,49.9 36.7,49.9 36.8,49.9 36.8,49.9 37,49.9 37,49.9 37,49.9 37,49.9 36.9,49.9 36.9,49.9 36.9,50 36.8,50 
			36.8,50 36.8,50 36.8,50.1 36.9,50.1 36.9,50.1 36.9,50.1 36.9,50.1 36.9,50.2 36.9,50.2 37,50.2 37,50.2 37,50.3 36.9,50.3 
			36.9,50.3 36.9,50.4 36.9,50.4 36.9,50.4 36.9,50.5 36.9,50.5 36.9,50.5 36.9,50.6 36.9,50.6 36.9,50.7 36.9,50.7 36.9,50.7 
			36.9,50.8 37,50.8 36.9,50.8 36.9,50.8 36.9,50.9 36.8,50.9 36.8,51 36.8,51 36.8,51.1 36.8,51.1 36.8,51.2 36.8,51.2 36.8,51.2 
			36.9,51.3 36.9,51.3 36.9,51.3 36.9,51.4 36.9,51.4 36.9,51.4 36.9,51.5 36.9,51.6 36.9,51.6 36.9,51.6 36.9,51.7 37,51.7 
			37,51.7 37,51.8 37,51.8 37,51.8 37,51.9 37,51.9 37,51.9 37,52 37,52 37,52 37,52 37,52.1 37,52.1 37,52.1 36.9,52.1 36.9,52.2 
			36.9,52.2 36.9,52.2 36.8,52.2 36.8,52.2 36.8,52.3 36.8,52.3 36.7,52.3 36.7,52.3 36.7,52.3 36.7,52.4 36.6,52.4 36.6,52.4 
			36.6,52.4 36.6,52.5 36.6,52.5 36.5,52.5 36.5,52.5 36.5,52.5 36.5,52.6 36.5,52.6 36.5,52.6 36.5,52.7 36.5,52.7 36.5,52.7 
			36.5,52.8 36.6,52.8 36.6,52.8 36.7,52.9 36.7,52.9 36.7,52.9 36.7,52.9 36.8,52.9 36.8,53 36.8,53 36.8,53 36.8,53.1 36.8,53.1 
			36.8,53.1 36.8,53.2 36.8,53.2 36.8,53.2 36.8,53.3 36.8,53.3 36.8,53.3 36.8,53.4 36.8,53.4 36.8,53.5 36.8,53.5 36.8,53.5 
			36.8,53.6 36.8,53.6 36.8,53.7 36.8,53.7 36.8,53.7 36.8,53.8 36.9,53.8 36.9,53.8 36.9,53.8 36.9,53.9 36.9,53.9 36.9,54 
			36.9,54 37,54 37,54.1 36.9,54.2 36.9,54.3 36.9,54.4 36.9,54.4 36.8,54.4 36.8,54.5 36.8,54.5 36.7,54.5 36.7,54.6 36.7,54.6 
			36.8,54.7 36.8,54.7 36.8,54.7 36.8,54.8 36.8,54.8 36.8,54.8 36.8,54.9 36.8,54.9 36.8,54.9 36.8,55 36.8,55 36.8,55 36.8,55.1 
			36.8,55.1 36.8,55.1 36.8,55.2 36.8,55.2 36.8,55.3 36.8,55.3 36.8,55.3 36.8,55.3 36.8,55.4 36.8,55.4 36.8,55.4 36.7,55.5 
			36.7,55.5 36.7,55.5 36.7,55.6 36.7,55.6 36.7,55.6 36.7,55.7 36.7,55.7 36.7,55.7 36.7,55.8 36.7,55.8 36.6,55.9 36.6,55.9 
			36.5,55.9 36.5,56 36.5,56 36.5,56 36.5,56 36.5,56.1 36.5,56.1 36.5,56.1 36.5,56.2 36.5,56.2 36.5,56.2 36.5,56.3 36.5,56.3 
			36.5,56.3 36.5,56.3 36.5,56.3 36.5,56.4 36.6,56.4 36.6,56.4 36.7,56.5 36.7,56.5 36.7,56.5 36.7,56.5 36.8,56.5 36.8,56.5 
			36.8,56.5 36.8,56.6 36.9,56.6 36.9,56.6 36.9,56.6 37,56.6 37,56.6 37,56.6 37.1,56.7 37.1,56.7 37.1,56.8 37.1,56.8 37.1,57 
			37.1,57 37.1,57.1 37.1,57.1 37.1,57.2 37.1,57.3 37.1,57.3 37.1,57.4 37.1,57.5 37.1,57.5 37.1,57.6 37.1,57.6 37.1,57.7 
			37,57.7 37,57.7 36.8,57.7 36.7,57.7 36.6,57.7 36.6,57.8 36.6,57.9 36.6,58 36.6,58.1 36.6,58.2 36.6,58.2 36.6,58.4 36.6,58.4 
			36.6,58.5 36.6,58.6 36.6,58.7 36.6,58.7 36.5,58.7 36.5,58.7 36.3,58.7 36.2,58.7 36.2,58.7 35.9,58.7 35.8,58.7 35.7,58.7 
			35.6,58.7 35.6,58.7 35.6,58.7 35.5,58.7 35.5,58.8 35.5,58.9 35.5,59 35.5,59 35.5,59 35.5,59 35.4,59 35.4,59.1 35.4,59.1 
			35.4,59.1 35.3,59.1 35.3,59.1 35.3,59.1 35.2,59.1 35.2,59.1 35.2,59 35.2,59 35.2,59 35.2,59 35.1,59 35.1,59 35.1,59 35.1,59 
			35,59 35,59 35,59 34.9,59 34.9,59 34.9,59 34.8,59 34.8,59 34.8,59 34.8,59 34.8,59 34.7,59 34.7,59 34.7,59 34.6,59 34.6,59 
			34.6,59 34.6,59 34.5,59 34.5,59 34.5,59.1 34.5,59.2 34.5,59.4 34.5,59.5 34.5,59.5 34.4,59.5 34.4,59.5 34.3,59.5 34.3,59.5 
			34.2,59.5 34,59.5 34,59.5 33.9,59.5 33.9,59.5 33.8,59.5 33.8,59.5 33.7,59.5 33.6,59.5 33.6,59.5 33.6,59.5 33.5,59.5 
			33.5,59.5 33.5,59.5 33.4,59.5 33.4,59.5 33.3,59.5 33.1,59.5 33.1,59.5 33,59.5 32.9,59.5 32.9,59.5 32.8,59.5 32.7,59.5 
			32.6,59.5 32.6,59.5 32.6,59.5 32.5,59.5 32.5,59.4 32.5,59.3 32.5,59.2 32.5,59.1 32.5,58.9 		"/>
	</g>
</g>
</svg>
